<?xml version="1.0" encoding="utf-8"?>
<!-- Generator: Adobe Illustrator 21.0.2, SVG Export Plug-In . SVG Version: 6.00 Build 0)  -->
<svg version="1.1" id="Layer_1" xmlns="http://www.w3.org/2000/svg" xmlns:xlink="http://www.w3.org/1999/xlink" x="0px" y="0px"
	 viewBox="0 0 24 24" style="enable-background:new 0 0 24 24;" xml:space="preserve">
<title>glyphName</title>
<path d="M18.3,6.4l1.5-1.5c0.4-0.4,0.8-0.5,1.3-0.2C21.5,5,21.8,5.4,21.8,6v6c0,0.4-0.1,0.8-0.4,1.1c-0.3,0.3-0.6,0.4-1.1,0.4h-6
	c-0.4,0-0.7-0.1-0.9-0.3c-0.3-0.2-0.4-0.5-0.5-0.8c0-0.3,0.1-0.6,0.3-0.9l1.9-1.9c-0.4-0.7-0.9-1.2-1.6-1.6
	c-0.7-0.4-1.4-0.6-2.2-0.6c-1.2,0-2.3,0.4-3.2,1.3S6.7,10.8,6.7,12s0.4,2.3,1.3,3.2c0.9,0.9,1.9,1.3,3.2,1.3c0.6,0,1.2-0.1,1.7-0.3
	c0.1,0,0.2-0.1,0.5-0.2c0.2-0.1,0.4-0.2,0.6-0.3c0.2-0.1,0.4-0.1,0.5-0.1c0.7,0,1.3,0.2,1.7,0.7s0.6,1,0.6,1.7
	c0,0.6-0.2,1.1-0.7,1.6c-0.3,0.2-0.7,0.5-1.1,0.7c-1.2,0.6-2.5,0.9-3.8,0.9c-1.6,0-3.1-0.4-4.5-1.2s-2.5-1.9-3.3-3.3
	S2.3,13.6,2.3,12s0.4-3.1,1.2-4.5S5.4,5,6.7,4.2S9.6,3,11.3,3c1.4,0,2.7,0.3,4,0.9S17.5,5.4,18.3,6.4z"/>
</svg>
