<?xml version="1.0" encoding="utf-8"?>
<!-- Generator: Adobe Illustrator 21.0.2, SVG Export Plug-In . SVG Version: 6.00 Build 0)  -->
<svg version="1.1" id="Layer_1" xmlns="http://www.w3.org/2000/svg" xmlns:xlink="http://www.w3.org/1999/xlink" x="0px" y="0px"
	 viewBox="0 0 24 24" style="enable-background:new 0 0 24 24;" xml:space="preserve">
<title>glyphName</title>
<path d="M22.4,12c0,0.3-0.1,0.6-0.2,0.9c-0.1,0.3-0.3,0.5-0.4,0.7c-0.1,0.2-0.4,0.4-0.7,0.8c-0.1,0.1-0.1,0.1-0.2,0.2l-6.5,6.8
	c-0.6,0.6-1.3,0.9-2.1,0.9c-0.8,0-1.5-0.3-2.1-0.9c-0.6-0.6-0.9-1.3-0.9-2.1s0.3-1.5,0.9-2.1l2-2.1H4.6c-0.8,0-1.5-0.3-2.1-0.9
	S1.6,12.8,1.6,12c0-0.8,0.3-1.5,0.9-2.1S3.7,9,4.6,9h7.7l-2-2.1C9.7,6.3,9.4,5.6,9.4,4.8s0.3-1.5,0.9-2.1s1.3-0.9,2.1-0.9
	c0.8,0,1.5,0.3,2.1,0.9L21,9.4c0.1,0.1,0.2,0.2,0.4,0.5s0.4,0.4,0.4,0.5s0.2,0.2,0.3,0.4c0.1,0.2,0.2,0.4,0.2,0.6S22.4,11.8,22.4,12
	L22.4,12z"/>
</svg>
