<?xml version="1.0" encoding="utf-8"?>
<!-- Generator: Adobe Illustrator 21.0.2, SVG Export Plug-In . SVG Version: 6.00 Build 0)  -->
<svg version="1.1" id="Layer_1" xmlns="http://www.w3.org/2000/svg" xmlns:xlink="http://www.w3.org/1999/xlink" x="0px" y="0px"
	 viewBox="0 0 24 24" style="enable-background:new 0 0 24 24;" xml:space="preserve">
<title>glyphName</title>
<path d="M16.8,7.5h1.8c0.7,0,1.2,0.2,1.7,0.7s0.7,1,0.7,1.7v7.2c0,0.7-0.2,1.2-0.7,1.7c-0.5,0.5-1,0.7-1.7,0.7H5.4
	c-0.7,0-1.2-0.2-1.7-0.7c-0.5-0.5-0.7-1-0.7-1.7V9.9c0-0.7,0.2-1.2,0.7-1.7c0.5-0.5,1-0.7,1.7-0.7h1.8l0.4-1.2
	c0.2-0.5,0.7-1,1.2-1.3c0.6-0.3,1.2-0.5,1.9-0.5h2.5c0.7,0,1.4,0.2,2,0.5s1,0.8,1.2,1.3L16.8,7.5z M12,16.5c1,0,1.9-0.4,2.7-1.1
	c0.7-0.7,1.1-1.6,1.1-2.7s-0.4-1.9-1.1-2.7S13,9,12,9c-1,0-1.9,0.4-2.7,1.1c-0.7,0.7-1.1,1.6-1.1,2.7s0.4,1.9,1.1,2.7
	C10.1,16.1,11,16.5,12,16.5z"/>
</svg>
