<?xml version="1.0" encoding="utf-8"?>
<!-- Generator: Adobe Illustrator 21.0.2, SVG Export Plug-In . SVG Version: 6.00 Build 0)  -->
<svg version="1.1" id="Layer_1" xmlns="http://www.w3.org/2000/svg" xmlns:xlink="http://www.w3.org/1999/xlink" x="0px" y="0px"
	 viewBox="0 0 24 24" style="enable-background:new 0 0 24 24;" xml:space="preserve">
<title>glyphName</title>
<path d="M8.5,6h12.6c0.4,0,0.7,0,1,0.1c0.3,0.1,0.6,0.2,0.9,0.3c0.3,0.1,0.5,0.3,0.6,0.5c0.2,0.2,0.3,0.5,0.3,0.9
	C24,8.1,24,8.5,23.9,9c-0.2,0.9-0.5,1.8-0.8,2.6c-0.3,0.8-0.5,1.5-0.6,1.9c-0.3,1-0.6,1.7-1.1,2.2c-0.5,0.5-1.1,0.8-1.9,0.8H9.4
	c-0.8,0-1.4-0.3-1.8-0.8c-0.4-0.5-0.8-1.3-1.2-2.2c-0.1-0.4-0.4-1.2-0.9-2.5c0,0,0-0.1,0-0.1s0-0.1,0-0.1l0,0
	C5.1,10.1,4.9,9.6,4.8,9l0-0.2L3.8,6H2.2C1.6,6,1.1,5.8,0.7,5.4C0.2,4.9,0,4.4,0,3.8c0-0.6,0.2-1.1,0.7-1.6s1-0.7,1.6-0.7h3.2
	c0.5,0,1,0.2,1.4,0.5c0.4,0.3,0.7,0.8,0.8,1.3c0,0.1,0.1,0.2,0.1,0.2L8.5,6z M9.7,18c0.6,0,1.2,0.2,1.6,0.7c0.4,0.4,0.7,1,0.7,1.6
	s-0.2,1.2-0.7,1.6c-0.4,0.4-1,0.7-1.6,0.7s-1.2-0.2-1.6-0.7c-0.4-0.4-0.7-1-0.7-1.6s0.2-1.2,0.7-1.6C8.6,18.2,9.1,18,9.7,18z
	 M18.7,18c0.6,0,1.2,0.2,1.6,0.7c0.4,0.4,0.7,1,0.7,1.6s-0.2,1.2-0.7,1.6c-0.4,0.4-1,0.7-1.6,0.7s-1.2-0.2-1.6-0.7
	c-0.4-0.4-0.7-1-0.7-1.6s0.2-1.2,0.7-1.6C17.6,18.2,18.1,18,18.7,18z"/>
</svg>
