<?xml version="1.0" encoding="utf-8"?>
<!-- Generator: Adobe Illustrator 21.0.2, SVG Export Plug-In . SVG Version: 6.00 Build 0)  -->
<svg version="1.1" id="Layer_1" xmlns="http://www.w3.org/2000/svg" xmlns:xlink="http://www.w3.org/1999/xlink" x="0px" y="0px"
	 viewBox="0 0 24 24" style="enable-background:new 0 0 24 24;" xml:space="preserve">
<title>glyphName</title>
<path d="M20.8,10.6c0,1.9-0.5,3.4-1.6,4.5s-2.6,1.7-4.5,2c-0.3,0.9-0.8,1.6-1.5,2.2c-0.4,0.4-1,0.7-1.8,0.8s-1.5,0.3-2.1,0.2
	c-0.7-0.1-1.1-0.2-1.3-0.5c-0.1-0.1-0.1-0.2-0.1-0.3c0-0.1,0.1-0.2,0.2-0.3c0.1-0.1,0.2-0.2,0.4-0.3s0.3-0.3,0.5-0.4
	c0.2-0.1,0.3-0.3,0.4-0.6c0.1-0.2,0.2-0.5,0.2-0.8c-2.1-0.3-3.7-0.9-4.8-2s-1.6-2.6-1.6-4.6c0-2.4,0.8-4.1,2.3-5.2S9.2,3.6,12,3.6
	c2.8,0,5,0.6,6.5,1.7S20.8,8.2,20.8,10.6L20.8,10.6z"/>
</svg>
