<?xml version="1.0" encoding="utf-8"?>
<!-- Generator: Adobe Illustrator 21.0.2, SVG Export Plug-In . SVG Version: 6.00 Build 0)  -->
<svg version="1.1" id="Layer_1" xmlns="http://www.w3.org/2000/svg" xmlns:xlink="http://www.w3.org/1999/xlink" x="0px" y="0px"
	 viewBox="0 0 24 24" style="enable-background:new 0 0 24 24;" xml:space="preserve">
<title>glyphName</title>
<path d="M21.9,4.5c0.6,0.6,0.9,1.3,0.9,2.1s-0.3,1.5-0.9,2.1L11.7,19.5c-0.6,0.6-1.3,0.9-2.1,0.9c-0.8,0-1.5-0.3-2.1-0.9l-5.3-5.3
	c-0.6-0.6-0.9-1.3-0.9-2.1c0-0.8,0.3-1.5,0.9-2.1s1.3-0.9,2.1-0.9S5.8,9.4,6.4,10l3.1,3.1l8.1-8.6c0.6-0.6,1.3-0.9,2.1-0.9
	C20.6,3.6,21.3,3.9,21.9,4.5L21.9,4.5z"/>
</svg>
