<?xml version="1.0" encoding="utf-8"?>
<!-- Generator: Adobe Illustrator 21.0.2, SVG Export Plug-In . SVG Version: 6.00 Build 0)  -->
<svg version="1.1" id="Layer_1" xmlns="http://www.w3.org/2000/svg" xmlns:xlink="http://www.w3.org/1999/xlink" x="0px" y="0px"
	 viewBox="0 0 24 24" style="enable-background:new 0 0 24 24;" xml:space="preserve">
<title>glyphName</title>
<path d="M21.7,2.9c1,1,1.6,2.1,2,3.4s0.3,2.6,0,3.9s-1,2.4-2,3.4L13.2,22c-0.7,0.7-1.6,1.1-2.5,1.3c-1,0.1-1.9,0-2.7-0.5
	c-0.4-0.2-0.8-0.5-1.1-0.8c-0.6-0.6-1-1.3-1.2-2c-0.2-0.8-0.2-1.5,0-2.3c0.2-0.8,0.6-1.4,1.2-2l8.5-8.5c0.3-0.3,0.6-0.4,1.1-0.4
	c0.4,0,0.8,0.1,1.1,0.4c0.3,0.3,0.4,0.6,0.4,1.1c0,0.4-0.1,0.8-0.4,1.1L9,17.8c-0.3,0.3-0.4,0.6-0.4,1.1s0.1,0.8,0.4,1.1
	c0.3,0.3,0.7,0.4,1.1,0.4c0.4,0,0.8-0.1,1.1-0.4l8.5-8.5c0.6-0.6,1-1.3,1.2-2s0.2-1.5,0-2.3s-0.6-1.4-1.2-2c-0.6-0.6-1.3-1-2-1.2
	c-0.8-0.2-1.5-0.2-2.3,0c-0.8,0.2-1.4,0.6-2,1.2L2.6,15.6c-0.3,0.3-0.6,0.4-1.1,0.4s-0.8-0.1-1.1-0.4S0.1,15,0.1,14.6
	s0.1-0.8,0.4-1.1L11.1,2.9c1-1,2.1-1.6,3.4-1.9c1.3-0.3,2.6-0.3,3.9,0C19.6,1.3,20.8,1.9,21.7,2.9L21.7,2.9z"/>
</svg>
