<?xml version="1.0" encoding="utf-8"?>
<!-- Generator: Adobe Illustrator 21.0.2, SVG Export Plug-In . SVG Version: 6.00 Build 0)  -->
<svg version="1.1" id="Layer_1" xmlns="http://www.w3.org/2000/svg" xmlns:xlink="http://www.w3.org/1999/xlink" x="0px" y="0px"
	 viewBox="0 0 24 24" style="enable-background:new 0 0 24 24;" xml:space="preserve">
<title>glyphName</title>
<path d="M21.2,12.5c0.6,0.2,1.1,0.6,1.5,1.2c0.4,0.5,0.6,1.2,0.6,1.9c0,0.9-0.3,1.7-0.9,2.3c-0.6,0.6-1.4,0.9-2.3,0.9
	c-0.6,0-1.2-0.2-1.7-0.5c-0.7,0.6-1.6,1.1-2.5,1.5S14,20.3,13,20.2c-1.9,0-3.6-0.6-5.1-1.7c-0.8,0.5-1.6,0.7-2.5,0.7
	c-1.3,0-2.4-0.5-3.3-1.4c-0.9-0.9-1.4-2-1.4-3.3c0-1.2,0.4-2.3,1.3-3.2S3.8,9.9,5,9.8C5.5,8,6.5,6.6,8,5.4s3.1-1.7,5-1.7
	c1.1,0,2.2,0.2,3.2,0.6s1.9,1,2.6,1.8s1.3,1.6,1.8,2.6c0.4,1,0.6,2.1,0.6,3.2C21.2,12.2,21.2,12.4,21.2,12.5L21.2,12.5z"/>
</svg>
