<?xml version="1.0" encoding="utf-8"?>
<!-- Generator: Adobe Illustrator 21.0.2, SVG Export Plug-In . SVG Version: 6.00 Build 0)  -->
<svg version="1.1" id="Layer_1" xmlns="http://www.w3.org/2000/svg" xmlns:xlink="http://www.w3.org/1999/xlink" x="0px" y="0px"
	 viewBox="0 0 24 24" style="enable-background:new 0 0 24 24;" xml:space="preserve">
<title>glyphName</title>
<path d="M9.5,20.8L22.3,8.1c0.3-0.3,0.4-0.7,0.4-1.1S22.6,6.3,22.3,6L18,1.7c-0.3-0.3-0.6-0.4-1.1-0.4s-0.8,0.1-1.1,0.4L3.2,14.5
	l-1.8,6.3l-0.1,0.5c0,0.4,0.2,0.7,0.4,1c0.3,0.3,0.6,0.4,1,0.4l0.5-0.1L9.5,20.8z M7.4,18.7l-2.1-2.1L14,7.8l2.1,2.1L7.4,18.7z"/>
</svg>
