<?xml version="1.0" encoding="utf-8"?>
<!-- Generator: Adobe Illustrator 21.0.2, SVG Export Plug-In . SVG Version: 6.00 Build 0)  -->
<svg version="1.1" id="Layer_1" xmlns="http://www.w3.org/2000/svg" xmlns:xlink="http://www.w3.org/1999/xlink" x="0px" y="0px"
	 viewBox="0 0 24 24" style="enable-background:new 0 0 24 24;" xml:space="preserve">
<title>glyphName</title>
<path d="M23.2,18.3v-9c0-0.8-0.3-1.5-0.9-2.1c-0.6-0.6-1.3-0.9-2.1-0.9h-9V5.7c0-0.8-0.3-1.5-0.9-2.1S9.1,2.7,8.2,2.7H3.8
	C2.9,2.7,2.2,3,1.6,3.6S0.7,4.9,0.8,5.7v12.6c0,0.8,0.3,1.5,0.9,2.1s1.3,0.9,2.1,0.9h16.5c0.8,0,1.5-0.3,2.1-0.9
	C23,19.8,23.2,19.1,23.2,18.3z M5.2,9.3h13.5c0.4,0,0.8,0.1,1.1,0.4s0.4,0.6,0.4,1.1c0,0.4-0.1,0.8-0.4,1.1s-0.6,0.4-1.1,0.4h-12
	v4.5c0,0.4-0.1,0.8-0.4,1.1s-0.6,0.4-1.1,0.4c-0.4,0-0.8-0.1-1.1-0.4s-0.4-0.6-0.4-1.1v-6c0-0.4,0.1-0.8,0.4-1.1
	C4.5,9.4,4.8,9.3,5.2,9.3z"/>
</svg>
