<?xml version="1.0" encoding="utf-8"?>
<!-- Generator: Adobe Illustrator 21.0.2, SVG Export Plug-In . SVG Version: 6.00 Build 0)  -->
<svg version="1.1" id="Layer_1" xmlns="http://www.w3.org/2000/svg" xmlns:xlink="http://www.w3.org/1999/xlink" x="0px" y="0px"
	 viewBox="0 0 24 24" style="enable-background:new 0 0 24 24;" xml:space="preserve">
<title>glyphName</title>
<path d="M23.4,12c0-0.6-0.2-1.1-0.6-1.6c-0.4-0.4-1-0.6-1.6-0.6h-2.1C19,9.4,18.8,9,18.6,8.5l1.5-1.5c0.4-0.4,0.7-1,0.7-1.6
	s-0.2-1.1-0.7-1.6c-0.4-0.4-1-0.7-1.6-0.7s-1.1,0.2-1.6,0.7l-1.5,1.5C15,5.2,14.6,5,14.2,4.9V2.8c0-0.6-0.2-1.1-0.6-1.6
	s-1-0.6-1.6-0.6s-1.1,0.2-1.6,0.7c-0.4,0.4-0.6,1-0.6,1.6v2.1C9.4,5,9,5.2,8.5,5.4L7.1,3.9c-0.4-0.4-1-0.7-1.6-0.7
	c-0.6,0-1.1,0.2-1.6,0.7c-0.4,0.4-0.7,1-0.7,1.6s0.2,1.1,0.7,1.6l1.5,1.5C5.2,9,5,9.4,4.9,9.8H2.8c-0.6,0-1.1,0.2-1.6,0.6
	c-0.4,0.4-0.6,1-0.6,1.6c0,0.6,0.2,1.1,0.6,1.6c0.4,0.4,1,0.6,1.6,0.6h2.1C5,14.6,5.2,15,5.4,15.5l-1.5,1.5c-0.4,0.4-0.7,1-0.7,1.6
	s0.2,1.1,0.7,1.6c0.4,0.4,1,0.7,1.6,0.7s1.1-0.2,1.6-0.7l1.5-1.5C9,18.8,9.4,19,9.8,19.1v2.1c0,0.6,0.2,1.1,0.6,1.6s1,0.6,1.6,0.6
	s1.1-0.2,1.6-0.6s0.6-1,0.6-1.6v-2.1c0.4-0.1,0.8-0.3,1.3-0.5l1.5,1.5c0.4,0.4,1,0.7,1.6,0.7s1.1-0.2,1.6-0.7c0.4-0.4,0.7-1,0.7-1.6
	s-0.2-1.1-0.7-1.6l-1.5-1.5c0.2-0.4,0.4-0.8,0.5-1.3h2.1c0.6,0,1.1-0.2,1.6-0.6C23.2,13.1,23.4,12.6,23.4,12z M12,9
	c0.8,0,1.5,0.3,2.1,0.9c0.6,0.6,0.9,1.3,0.9,2.1c0,0.8-0.3,1.5-0.9,2.1S12.8,15,12,15c-0.8,0-1.5-0.3-2.1-0.9S9,12.8,9,12
	c0-0.8,0.3-1.5,0.9-2.1C10.5,9.3,11.2,9,12,9z"/>
</svg>
