<?xml version="1.0" encoding="utf-8"?>
<!-- Generator: Adobe Illustrator 21.0.2, SVG Export Plug-In . SVG Version: 6.00 Build 0)  -->
<svg version="1.1" id="Layer_1" xmlns="http://www.w3.org/2000/svg" xmlns:xlink="http://www.w3.org/1999/xlink" x="0px" y="0px"
	 viewBox="0 0 24 24" style="enable-background:new 0 0 24 24;" xml:space="preserve">
<title>glyphName</title>
<path d="M18.8,9H21c0.8,0,1.5,0.3,2.1,0.9c0.6,0.6,0.9,1.3,0.9,2.1c0,0.8-0.3,1.5-0.9,2.1C22.5,14.7,21.8,15,21,15h-2.2
	c-0.2,0.5-0.5,1-0.8,1.4l1.1,1.9c0.4,0.7,0.5,1.5,0.3,2.3c-0.2,0.8-0.7,1.4-1.4,1.8c-0.7,0.4-1.5,0.5-2.3,0.3
	c-0.8-0.2-1.4-0.7-1.8-1.4l-1.1-1.9c-0.5,0.1-1,0.1-1.7,0l-1.1,1.9c-0.4,0.7-1,1.2-1.8,1.4S6.7,22.8,6,22.4c-0.7-0.4-1.2-1-1.4-1.8
	S4.5,19,4.9,18.3L6,16.4c-0.3-0.4-0.5-0.6-0.5-0.7c0-0.1-0.2-0.3-0.3-0.8H3c-0.8,0-1.5-0.3-2.1-0.9S0,12.8,0,12
	c0-0.8,0.3-1.5,0.9-2.1C1.5,9.3,2.2,9,3,9h2.2C5.4,8.5,5.6,8,6,7.6L4.9,5.7C4.5,5,4.4,4.2,4.6,3.4S5.3,2,6,1.6
	c0.7-0.4,1.5-0.5,2.3-0.3C9.1,1.5,9.7,2,10.1,2.7l1.1,1.9c0.5-0.1,1-0.1,1.7,0l1.1-1.9c0.4-0.7,1-1.2,1.8-1.4
	c0.8-0.2,1.6-0.1,2.3,0.3c0.7,0.4,1.2,1,1.4,1.8s0.1,1.6-0.3,2.3L18,7.6c0.3,0.4,0.5,0.6,0.5,0.7C18.5,8.3,18.7,8.6,18.8,9z
	 M13.5,14.6c0.7-0.4,1.2-1,1.4-1.8s0.1-1.6-0.3-2.3s-1-1.2-1.8-1.4C12,8.9,11.2,9,10.5,9.4c-0.7,0.4-1.2,1-1.4,1.8S9,12.8,9.4,13.5
	c0.4,0.7,1,1.2,1.8,1.4S12.8,15,13.5,14.6z"/>
</svg>
