<?xml version="1.0" encoding="utf-8"?>
<!-- Generator: Adobe Illustrator 21.0.2, SVG Export Plug-In . SVG Version: 6.00 Build 0)  -->
<svg version="1.1" id="Layer_1" xmlns="http://www.w3.org/2000/svg" xmlns:xlink="http://www.w3.org/1999/xlink" x="0px" y="0px"
	 viewBox="0 0 24 24" style="enable-background:new 0 0 24 24;" xml:space="preserve">
<title>glyphName</title>
<path d="M13.3,2.2l8.6,7.1c0.4,0.4,0.7,1,0.7,1.6c0,0.6-0.2,1.2-0.7,1.6c-0.4,0.4-1,0.7-1.6,0.7h-0.8v7.7c0,0.4-0.2,0.7-0.4,0.9
	s-0.6,0.4-0.9,0.4H5.9c-0.4,0-0.7-0.1-1-0.4c-0.3-0.3-0.4-0.6-0.4-1v-7.6H3.8c-0.6,0-1.2-0.2-1.6-0.7s-0.7-1-0.7-1.6
	c0-0.6,0.2-1.2,0.7-1.6l8.6-7.1C11.1,2,11.5,1.8,12,1.8S12.9,2,13.3,2.2L13.3,2.2z M9,11.7h6c0-0.8-0.3-1.5-0.9-2.1
	C13.5,9,12.8,8.7,12,8.7c-0.8,0-1.5,0.3-2.1,0.9C9.3,10.1,9,10.8,9,11.7z M13.5,14.7h-3v4.5h3V14.7z"/>
</svg>
