<?xml version="1.0" encoding="utf-8"?>
<!-- Generator: Adobe Illustrator 21.0.2, SVG Export Plug-In . SVG Version: 6.00 Build 0)  -->
<svg version="1.1" id="Layer_1" xmlns="http://www.w3.org/2000/svg" xmlns:xlink="http://www.w3.org/1999/xlink" x="0px" y="0px"
	 viewBox="0 0 24 24" style="enable-background:new 0 0 24 24;" xml:space="preserve">
<title>glyphName</title>
<path d="M21.4,15.7V8.3c0-0.9-0.3-1.6-0.9-2.2s-1.3-0.9-2.2-0.9H5.8c-0.9,0-1.6,0.3-2.2,0.9S2.6,7.4,2.6,8.3v7.4
	c0,0.9,0.3,1.6,0.9,2.2c0.6,0.6,1.3,0.9,2.2,0.9h12.5c0.9,0,1.6-0.3,2.2-0.9S21.4,16.6,21.4,15.7z M19,9.5l-6.3,4.2
	c-0.2,0.1-0.4,0.2-0.7,0.2s-0.5-0.1-0.7-0.2L5,9.5C4.7,9.3,4.5,9,4.5,8.7c-0.1-0.4,0-0.7,0.2-1c0.2-0.3,0.5-0.5,0.8-0.6
	c0.4-0.1,0.7,0,1,0.2L12,11l5.5-3.7c0.3-0.2,0.6-0.3,1-0.2c0.4,0.1,0.6,0.3,0.8,0.6c0.2,0.3,0.3,0.6,0.2,1C19.5,9,19.3,9.3,19,9.5z"
	/>
</svg>
