<?xml version="1.0" encoding="utf-8"?>
<!-- Generator: Adobe Illustrator 21.0.2, SVG Export Plug-In . SVG Version: 6.00 Build 0)  -->
<svg version="1.1" id="Layer_1" xmlns="http://www.w3.org/2000/svg" xmlns:xlink="http://www.w3.org/1999/xlink" x="0px" y="0px"
	 viewBox="0 0 24 24" style="enable-background:new 0 0 24 24;" xml:space="preserve">
<title>glyphName</title>
<path d="M12,19.9c0.9-0.1,1.8-0.4,2.7-0.8c0.9-0.4,1.7-0.8,2.4-1.4c0.7-0.5,1.4-1.1,2-1.8c0.6-0.7,1.1-1.4,1.5-2.1
	c0.4-0.7,0.7-1.5,0.9-2.2s0.3-1.5,0.3-2.2s-0.2-1.4-0.5-2c-0.4-0.8-0.9-1.5-1.5-2.1s-1.4-0.9-2.2-1.1c-0.8-0.2-1.7-0.2-2.6,0
	c-1,0.2-1.9,0.6-2.9,1.3c-1-0.6-1.9-1.1-2.9-1.3C8.2,4,7.3,4,6.5,4.2S5,4.8,4.3,5.4S3.2,6.6,2.8,7.4C2.5,8,2.4,8.7,2.3,9.4
	c0,0.7,0.1,1.5,0.3,2.2s0.5,1.5,0.9,2.2C3.9,14.6,4.4,15.3,5,16c0.6,0.7,1.3,1.3,2,1.8c0.7,0.5,1.5,1,2.4,1.4
	C10.2,19.5,11.1,19.8,12,19.9L12,19.9z"/>
</svg>
