<?xml version="1.0" encoding="utf-8"?>
<!-- Generator: Adobe Illustrator 21.0.2, SVG Export Plug-In . SVG Version: 6.00 Build 0)  -->
<svg version="1.1" id="Layer_1" xmlns="http://www.w3.org/2000/svg" xmlns:xlink="http://www.w3.org/1999/xlink" x="0px" y="0px"
	 viewBox="0 0 24 24" style="enable-background:new 0 0 24 24;" xml:space="preserve">
<title>glyphName</title>
<path d="M22,2.7c0.9,0.9,1.4,1.9,1.7,3s0.3,2.3,0,3.5s-0.9,2.2-1.7,3L18.3,16c-0.7,0.7-1.4,1.1-2.1,1.5c-0.8,0.3-1.5,0.5-2.2,0.5
	c-0.7,0-1.4-0.1-2.1-0.3c-0.7-0.2-1.3-0.4-1.8-0.7s-1-0.6-1.3-0.9c-0.3-0.2-0.5-0.5-0.6-0.9s-0.1-0.7,0-1.2s0.3-0.8,0.6-1.1
	c0.4-0.4,1-0.7,1.6-0.7s1.2,0.2,1.6,0.7c0.4,0.4,1,0.7,1.6,0.7c0.6,0,1.2-0.2,1.6-0.7l3.7-3.7c0.4-0.4,0.7-1,0.7-1.6
	s-0.2-1.2-0.7-1.6c-0.4-0.4-1-0.7-1.6-0.7c-0.6,0-1.2,0.2-1.6,0.7l-0.5,0.5c-0.4,0.4-1,0.7-1.6,0.7c-0.6,0-1.2-0.2-1.6-0.7
	c-0.4-0.4-0.7-1-0.7-1.6c0-0.6,0.2-1.2,0.7-1.6l0.5-0.5c0.9-0.9,1.9-1.5,3-1.8s2.3-0.3,3.5,0C20.2,1.3,21.2,1.9,22,2.7L22,2.7z
	 M2,21.3c-0.9-0.9-1.5-1.9-1.8-3s-0.3-2.3,0-3.5s0.9-2.2,1.8-3l3.2-3.2c1.3-1.3,2.8-1.9,4.6-2c1.8,0,3.4,0.6,5,2
	c0.2,0.3,0.4,0.6,0.5,0.9c0.1,0.3,0.1,0.7,0.1,1.1s-0.3,0.8-0.6,1.1c-0.4,0.4-1,0.7-1.6,0.7s-1.2-0.2-1.6-0.7
	c-0.4-0.4-1-0.7-1.6-0.7c-0.6,0-1.2,0.2-1.6,0.7c-0.4,0.4-0.9,0.9-1.6,1.6s-1.2,1.2-1.6,1.6c-0.4,0.4-0.7,1-0.7,1.6
	c0,0.6,0.2,1.2,0.7,1.6c0.4,0.4,1,0.7,1.6,0.7s1.2-0.2,1.6-0.7c0.5-0.4,1-0.7,1.6-0.6s1.1,0.2,1.6,0.6c0.4,0.4,0.7,1,0.7,1.6
	s-0.2,1.2-0.7,1.6c-0.9,0.9-1.9,1.5-3,1.8c-1.2,0.3-2.3,0.3-3.5,0S2.8,22.1,2,21.3L2,21.3z"/>
</svg>
