<?xml version="1.0" encoding="utf-8"?>
<!-- Generator: Adobe Illustrator 21.0.2, SVG Export Plug-In . SVG Version: 6.00 Build 0)  -->
<svg version="1.1" id="Layer_1" xmlns="http://www.w3.org/2000/svg" xmlns:xlink="http://www.w3.org/1999/xlink" x="0px" y="0px"
	 viewBox="0 0 24 24" style="enable-background:new 0 0 24 24;" xml:space="preserve">
<title>glyphName</title>
<path d="M22.5,16.7V7.3c0-1-0.3-1.8-1-2.5c-0.7-0.7-1.5-1-2.5-1H5c-1,0-1.8,0.3-2.5,1s-1,1.5-1,2.5v9.5c0,1,0.3,1.8,1,2.5
	s1.5,1,2.5,1h14c1,0,1.8-0.3,2.5-1S22.5,17.7,22.5,16.7z M19.8,8.9l-7,4.7c-0.2,0.1-0.5,0.2-0.8,0.2s-0.6-0.1-0.8-0.2l-7-4.7
	C3.9,8.6,3.6,8.3,3.6,7.9c-0.1-0.4,0-0.8,0.2-1.1C4,6.5,4.3,6.3,4.7,6.2s0.8,0,1.1,0.2l6.2,4.1l6.2-4.1c0.3-0.2,0.7-0.3,1.1-0.2
	s0.7,0.3,0.9,0.6c0.2,0.3,0.3,0.7,0.2,1.1C20.4,8.3,20.2,8.6,19.8,8.9L19.8,8.9z"/>
</svg>
