<?xml version="1.0" encoding="utf-8"?>
<!-- Generator: Adobe Illustrator 21.0.2, SVG Export Plug-In . SVG Version: 6.00 Build 0)  -->
<svg version="1.1" id="Layer_1" xmlns="http://www.w3.org/2000/svg" xmlns:xlink="http://www.w3.org/1999/xlink" x="0px" y="0px"
	 viewBox="0 0 24 24" style="enable-background:new 0 0 24 24;" xml:space="preserve">
<title>glyphName</title>
<path d="M15,9h3c0.8,0,1.5,0.3,2.1,0.9c0.6,0.6,0.9,1.3,0.9,2.1c0,0.8-0.3,1.5-0.9,2.1C19.5,14.7,18.8,15,18,15h-3v3
	c0,0.8-0.3,1.5-0.9,2.1C13.5,20.7,12.8,21,12,21c-0.8,0-1.5-0.3-2.1-0.9C9.3,19.5,9,18.8,9,18v-3H6c-0.8,0-1.5-0.3-2.1-0.9
	S3,12.8,3,12s0.3-1.5,0.9-2.1C4.5,9.3,5.2,9,6,9h3V6c0-0.8,0.3-1.5,0.9-2.1S11.2,3,12,3s1.5,0.3,2.1,0.9C14.7,4.5,15,5.2,15,6
	C15,6,15,9,15,9z"/>
</svg>
