<?xml version="1.0" encoding="utf-8"?>
<!-- Generator: Adobe Illustrator 21.0.2, SVG Export Plug-In . SVG Version: 6.00 Build 0)  -->
<svg version="1.1" id="Layer_1" xmlns="http://www.w3.org/2000/svg" xmlns:xlink="http://www.w3.org/1999/xlink" x="0px" y="0px"
	 viewBox="0 0 24 24" style="enable-background:new 0 0 24 24;" xml:space="preserve">
<title>glyphName</title>
<path d="M14,3.6c1,1,1.7,2.2,2,3.6c0.3,1.4,0.2,2.7-0.2,4l5.4,4.5c0.9,0.8,1.4,1.7,1.5,2.9c0.1,1.1-0.3,2.1-1.1,2.9
	c-0.8,0.8-1.8,1.2-2.9,1.1s-2.1-0.6-2.9-1.5l-4.6-5.4c-1.3,0.5-2.6,0.5-4,0.2c-1.4-0.3-2.6-1-3.6-2C2.6,13.1,2,12,1.6,10.7
	s-0.3-2.5,0-3.8s1-2.4,1.9-3.3S5.6,2,6.9,1.6s2.5-0.3,3.8,0S13.1,2.6,14,3.6L14,3.6z M11.8,5.7C11,4.9,10,4.5,8.8,4.5
	S6.6,4.9,5.7,5.7S4.5,7.6,4.5,8.8s0.4,2.2,1.3,3.1c0.8,0.8,1.9,1.3,3.1,1.3s2.2-0.4,3.1-1.3s1.3-1.9,1.3-3.1S12.7,6.6,11.8,5.7z"/>
</svg>
