<?xml version="1.0" encoding="utf-8"?>
<!-- Generator: Adobe Illustrator 21.0.2, SVG Export Plug-In . SVG Version: 6.00 Build 0)  -->
<svg version="1.1" id="Layer_1" xmlns="http://www.w3.org/2000/svg" xmlns:xlink="http://www.w3.org/1999/xlink" x="0px" y="0px"
	 viewBox="0 0 24 24" style="enable-background:new 0 0 24 24;" xml:space="preserve">
<title>glyphName</title>
<path d="M8.2,7.7c-0.2,0-0.4,0-0.7-0.1c-0.3,0-0.9,0-1.7-0.1c-0.8,0-1.6,0-2.2,0.1S2.2,7.9,1.6,8.2C1,8.5,0.7,8.8,0.5,9.3
	c-0.1,0.3-0.1,0.7,0,1.1c0.1,0.4,0.4,0.8,0.7,1.1c0.3,0.4,0.7,0.7,1,1.1s0.8,0.7,1.2,1s0.8,0.6,1.1,0.8c0.3,0.2,0.6,0.4,0.9,0.5
	L5.8,15c-0.1,0.2-0.2,0.4-0.3,0.7s-0.3,0.8-0.6,1.6s-0.5,1.5-0.6,2.1c-0.1,0.6-0.2,1.3-0.1,2c0.1,0.7,0.3,1.1,0.7,1.4
	c0.4,0.3,0.9,0.3,1.5,0.2s1.2-0.4,1.9-0.7c0.7-0.4,1.3-0.8,1.8-1.2c0.6-0.4,1-0.8,1.4-1.1l0.6-0.5c0,0,0.1,0.1,0.2,0.2
	s0.2,0.2,0.5,0.4s0.5,0.4,0.7,0.6c0.2,0.2,0.5,0.4,0.9,0.7s0.7,0.5,1,0.7s0.7,0.4,1,0.6s0.7,0.3,1,0.4c0.3,0.1,0.6,0.1,0.9,0.1
	c0.3,0,0.6-0.1,0.8-0.3c0.4-0.3,0.6-0.7,0.7-1.4c0.1-0.6,0-1.3-0.1-2c-0.2-0.7-0.3-1.4-0.6-2.1c-0.2-0.7-0.4-1.2-0.6-1.7L18.2,15
	c0.1,0,0.2-0.1,0.3-0.2c0.1-0.1,0.4-0.3,0.8-0.5c0.4-0.3,0.8-0.5,1.2-0.8c0.4-0.3,0.8-0.6,1.2-1c0.4-0.4,0.8-0.7,1.1-1.1
	s0.5-0.7,0.6-1.1c0.1-0.4,0.2-0.7,0.1-1.1c-0.1-0.3-0.3-0.6-0.7-0.8c-0.3-0.2-0.7-0.4-1.2-0.5c-0.5-0.1-0.9-0.2-1.5-0.3
	c-0.5-0.1-1-0.1-1.5-0.1s-1,0-1.4,0c-0.4,0-0.7,0-1,0.1l-0.4,0c0-0.1,0-0.2-0.1-0.4c0-0.2-0.1-0.5-0.2-0.9c-0.1-0.5-0.3-0.9-0.4-1.3
	c-0.1-0.4-0.3-0.9-0.6-1.4s-0.5-1-0.7-1.3S13.3,1.6,13,1.3s-0.7-0.4-1-0.4c-0.3,0-0.7,0.1-1,0.4c-0.3,0.3-0.6,0.6-0.9,1
	C9.9,2.7,9.7,3.1,9.4,3.6S9,4.6,8.9,5C8.7,5.5,8.6,6,8.5,6.4c-0.1,0.4-0.2,0.7-0.2,1L8.2,7.7z"/>
</svg>
