<?xml version="1.0" encoding="utf-8"?>
<!-- Generator: Adobe Illustrator 21.0.2, SVG Export Plug-In . SVG Version: 6.00 Build 0)  -->
<svg version="1.1" id="Layer_1" xmlns="http://www.w3.org/2000/svg" xmlns:xlink="http://www.w3.org/1999/xlink" x="0px" y="0px"
	 viewBox="0 0 24 24" style="enable-background:new 0 0 24 24;" xml:space="preserve">
<title>glyphName</title>
<path d="M19.5,18.7V5.3c0-0.6-0.2-1.2-0.7-1.7S17.8,3,17.2,3H6.8C6.2,3,5.6,3.2,5.2,3.7c-0.5,0.5-0.7,1-0.7,1.7v13.3
	c0,0.6,0.2,1.2,0.7,1.6c0.5,0.5,1,0.7,1.6,0.7c0.5,0,1-0.1,1.5-0.3c0.5-0.2,1-0.4,1.4-0.7c0.4-0.3,0.8-0.6,1.1-0.9
	c0.3-0.3,0.6-0.5,0.8-0.7l0.3-0.3c0.1,0.1,0.2,0.2,0.3,0.3s0.4,0.4,0.8,0.7c0.4,0.3,0.8,0.6,1.2,0.9c0.4,0.3,0.9,0.5,1.4,0.7
	c0.5,0.2,1,0.3,1.5,0.3c0.6,0,1.1-0.2,1.6-0.7C19.3,19.8,19.5,19.3,19.5,18.7L19.5,18.7z"/>
</svg>
