<?xml version="1.0" encoding="utf-8"?>
<!-- Generator: Adobe Illustrator 21.0.2, SVG Export Plug-In . SVG Version: 6.00 Build 0)  -->
<svg version="1.1" id="Layer_1" xmlns="http://www.w3.org/2000/svg" xmlns:xlink="http://www.w3.org/1999/xlink" x="0px" y="0px"
	 viewBox="0 0 24 24" style="enable-background:new 0 0 24 24;" xml:space="preserve">
<title>glyphName</title>
<path d="M18,3.8h3c0.4,0,0.8,0.1,1.1,0.4s0.4,0.6,0.4,1.1v1.5c0,0.4-0.1,0.8-0.4,1.1c-0.3,0.3-0.6,0.4-1.1,0.4H3
	c-0.4,0-0.8-0.1-1.1-0.4C1.6,7.5,1.5,7.2,1.5,6.8V5.3c0-0.4,0.1-0.8,0.4-1.1S2.6,3.7,3,3.8h3c0.1-0.1,0.1-0.2,0.2-0.3
	c0.1-0.1,0.3-0.4,0.6-0.7c0.3-0.3,0.5-0.6,0.8-0.9c0.2-0.3,0.5-0.5,0.8-0.7C8.6,0.9,8.8,0.7,9,0.8h6c0.2,0,0.4,0.1,0.6,0.3
	c0.3,0.2,0.5,0.5,0.8,0.8c0.3,0.3,0.5,0.6,0.8,0.9c0.2,0.3,0.4,0.5,0.6,0.8L18,3.8z M3.1,9.7h17.8l-1.1,11c-0.1,0.7-0.5,1.3-1.1,1.8
	c-0.6,0.5-1.4,0.7-2.2,0.7h-9c-0.8,0-1.6-0.2-2.2-0.7c-0.6-0.5-1-1.1-1.1-1.8L3.1,9.7z M6,14.3v4.5c0,0.4,0.1,0.7,0.4,1
	s0.6,0.5,1.1,0.5c0.4,0,0.8-0.1,1.1-0.4C8.9,19.5,9,19.2,9,18.8v-4.5c0-0.4-0.1-0.7-0.4-1s-0.6-0.5-1.1-0.5c-0.4,0-0.8,0.1-1.1,0.4
	S6,13.8,6,14.3z M10.5,14.3v4.5c0,0.4,0.1,0.7,0.4,1c0.3,0.3,0.6,0.5,1.1,0.5c0.4,0,0.8-0.1,1.1-0.4c0.3-0.3,0.4-0.6,0.4-1.1v-4.5
	c0-0.4-0.1-0.7-0.4-1c-0.3-0.3-0.6-0.5-1.1-0.5c-0.4,0-0.8,0.1-1.1,0.4S10.5,13.8,10.5,14.3z M15,14.3v4.5c0,0.4,0.1,0.7,0.4,1
	c0.3,0.3,0.6,0.5,1.1,0.5c0.4,0,0.8-0.1,1.1-0.4c0.3-0.3,0.4-0.6,0.4-1.1v-4.5c0-0.4-0.1-0.7-0.4-1s-0.6-0.5-1.1-0.5
	c-0.4,0-0.8,0.1-1.1,0.4S15,13.8,15,14.3z"/>
</svg>
