<?xml version="1.0" encoding="utf-8"?>
<!-- Generator: Adobe Illustrator 21.0.2, SVG Export Plug-In . SVG Version: 6.00 Build 0)  -->
<svg version="1.1" id="Layer_1" xmlns="http://www.w3.org/2000/svg" xmlns:xlink="http://www.w3.org/1999/xlink" x="0px" y="0px"
	 viewBox="0 0 24 24" style="enable-background:new 0 0 24 24;" xml:space="preserve">
<title>glyphName</title>
<path d="M16.3,7.3h2.1c0.6,0,1.2,0.2,1.7,0.7s0.7,1,0.7,1.7v7c0,0.6-0.2,1.2-0.7,1.7s-1,0.7-1.7,0.7H5.6c-0.6,0-1.2-0.2-1.7-0.7
	s-0.7-1-0.7-1.7v-7C3.2,9,3.4,8.5,3.9,8s1-0.7,1.7-0.7h2.1l0.2-0.6C8.1,6.2,8.5,5.8,9,5.5C9.6,5.1,10.2,5,10.8,5h2.3
	c0.7,0,1.3,0.2,1.8,0.5c0.6,0.3,0.9,0.7,1.1,1.2L16.3,7.3z M12,16.3c1,0,1.8-0.3,2.5-1c0.7-0.7,1-1.5,1-2.5s-0.3-1.8-1-2.5
	c-0.7-0.7-1.5-1-2.5-1s-1.8,0.3-2.5,1c-0.7,0.7-1,1.5-1,2.5c0,1,0.3,1.8,1,2.5S11,16.3,12,16.3z"/>
</svg>
