<?xml version="1.0" encoding="utf-8"?>
<!-- Generator: Adobe Illustrator 21.0.2, SVG Export Plug-In . SVG Version: 6.00 Build 0)  -->
<svg version="1.1" id="Layer_1" xmlns="http://www.w3.org/2000/svg" xmlns:xlink="http://www.w3.org/1999/xlink" x="0px" y="0px"
	 viewBox="0 0 24 24" style="enable-background:new 0 0 24 24;" xml:space="preserve">
<title>glyphName</title>
<path d="M12,11.7c0.6,0,1.2-0.2,1.7-0.5s1-0.7,1.3-1.2c0.4-0.5,0.7-1.1,0.9-1.7c0.2-0.6,0.4-1.3,0.4-1.9s0-1.3-0.1-1.9
	s-0.4-1.2-0.7-1.7s-0.8-0.9-1.4-1.2S12.8,1.1,12,1.1c-0.8,0-1.5,0.2-2.1,0.5S8.9,2.3,8.5,2.8S8,3.9,7.8,4.5C7.7,5.1,7.6,5.8,7.7,6.4
	c0.1,0.7,0.2,1.3,0.4,1.9S8.6,9.6,9,10.1s0.8,0.9,1.3,1.2C10.8,11.6,11.4,11.7,12,11.7z M12,15.6l5.1-5.6c1.5,0.6,2.6,1.5,3.4,2.6
	c0.8,1.1,1.3,2.5,1.3,4c0,4.2-3.2,6.2-9.8,6.2s-9.8-2.1-9.8-6.2c0-1.5,0.4-2.9,1.3-4s2-2,3.4-2.6L12,15.6z"/>
</svg>
