<?xml version="1.0" encoding="utf-8"?>
<!-- Generator: Adobe Illustrator 21.0.2, SVG Export Plug-In . SVG Version: 6.00 Build 0)  -->
<svg version="1.1" id="Layer_1" xmlns="http://www.w3.org/2000/svg" xmlns:xlink="http://www.w3.org/1999/xlink" x="0px" y="0px"
	 viewBox="0 0 24 24" style="enable-background:new 0 0 24 24;" xml:space="preserve">
<title>glyphName</title>
<path d="M10.9,6c0-0.6-0.2-1.2-0.7-1.6C9.8,4,9.3,3.7,8.7,3.7H3.8C3.1,3.7,2.6,4,2.2,4.4S1.5,5.4,1.5,6s0.2,1.2,0.7,1.6
	s1,0.7,1.6,0.7h4.9c0.6,0,1.1-0.2,1.6-0.7C10.7,7.1,10.9,6.6,10.9,6z M18,18v-6c1.6-1.2,2.6-2,3-2.2c0.3-0.2,0.6-0.1,1,0.1
	s0.5,0.5,0.5,1v8c0,0.5-0.2,0.9-0.5,1.1c-0.3,0.2-0.7,0.2-1.1,0c-0.2-0.1-0.6-0.3-1-0.7s-0.9-0.7-1.3-1L18,18z M16.5,17.9v-5.8
	c0-0.6-0.2-1.2-0.7-1.7c-0.5-0.5-1-0.7-1.7-0.7H6.8c-0.6,0-1.2,0.2-1.6,0.7c-0.5,0.5-0.7,1-0.7,1.6v5.8c0,0.6,0.2,1.2,0.7,1.6
	c0.5,0.5,1,0.7,1.6,0.7h7.3c0.6,0,1.2-0.2,1.7-0.7C16.3,19.1,16.5,18.6,16.5,17.9z"/>
</svg>
