<?xml version="1.0" encoding="utf-8"?>
<!-- Generator: Adobe Illustrator 21.0.2, SVG Export Plug-In . SVG Version: 6.00 Build 0)  -->
<svg version="1.1" id="Layer_1" xmlns="http://www.w3.org/2000/svg" xmlns:xlink="http://www.w3.org/1999/xlink" x="0px" y="0px"
	 viewBox="0 0 24 24" style="enable-background:new 0 0 24 24;" xml:space="preserve">
<title>glyphName</title>
<path d="M22.4,12c0-0.7-0.3-1.5-1-2.4c-0.7-0.9-1.5-1.7-2.5-2.5c-1-0.8-2.1-1.4-3.4-1.9S13.1,4.5,12,4.5S9.8,4.8,8.5,5.3
	S6.1,6.4,5.1,7.1S3.3,8.7,2.6,9.6s-1,1.7-1,2.5c0,0.7,0.3,1.6,1,2.4c0.7,0.9,1.5,1.7,2.5,2.4c1,0.7,2.1,1.3,3.4,1.8s2.4,0.7,3.5,0.7
	c1.1,0,2.2-0.3,3.5-0.8c1.3-0.5,2.4-1.1,3.4-1.9c1-0.7,1.8-1.5,2.5-2.4C22.1,13.6,22.4,12.8,22.4,12L22.4,12z M12,7.5
	c1.2,0,2.3,0.4,3.2,1.3c0.9,0.9,1.3,1.9,1.3,3.2s-0.4,2.3-1.3,3.2c-0.9,0.9-1.9,1.3-3.2,1.3s-2.3-0.4-3.2-1.3
	c-0.9-0.9-1.3-1.9-1.3-3.2c0-1.2,0.4-2.3,1.3-3.2C9.7,7.9,10.8,7.5,12,7.5z M14.3,12c0-0.6-0.2-1.2-0.7-1.6c-0.4-0.4-1-0.7-1.6-0.7
	s-1.2,0.2-1.6,0.7c-0.4,0.4-0.7,1-0.7,1.6c0,0.6,0.2,1.2,0.7,1.6s1,0.7,1.6,0.7s1.2-0.2,1.6-0.7C14,13.2,14.3,12.6,14.3,12z"/>
</svg>
