<?xml version="1.0" encoding="utf-8"?>
<!-- Generator: Adobe Illustrator 21.0.2, SVG Export Plug-In . SVG Version: 6.00 Build 0)  -->
<svg version="1.1" id="Layer_1" xmlns="http://www.w3.org/2000/svg" xmlns:xlink="http://www.w3.org/1999/xlink" x="0px" y="0px"
	 viewBox="0 0 24 24" style="enable-background:new 0 0 24 24;" xml:space="preserve">
<title>glyphName</title>
<path d="M18.9,8.4l3.6-3.6C23,6,23.1,7.2,22.9,8.5s-0.8,2.4-1.7,3.3c-0.8,0.8-1.8,1.4-2.9,1.7s-2.2,0.3-3.2,0l-6.7,8.3
	C7.6,22.6,6.6,23,5.4,23s-2.2-0.4-3.1-1.3c-0.9-0.9-1.3-2-1.3-3.1c0-1.2,0.5-2.1,1.3-2.8L10.6,9c-0.3-1-0.3-2.1,0-3.2
	s0.8-2.1,1.7-2.9c0.9-0.9,2-1.5,3.3-1.7C16.8,0.9,18,1,19.1,1.5L15.6,5L18.9,8.4z M6.6,20.1c0.4-0.4,0.6-0.8,0.6-1.4s-0.2-1-0.6-1.4
	c-0.4-0.4-0.8-0.6-1.4-0.6s-1,0.2-1.4,0.6c-0.4,0.4-0.6,0.8-0.6,1.4s0.2,1,0.6,1.4c0.4,0.4,0.8,0.6,1.4,0.6
	C5.8,20.7,6.2,20.5,6.6,20.1z"/>
</svg>
