<?xml version="1.0" encoding="utf-8"?>
<!-- Generator: Adobe Illustrator 21.0.2, SVG Export Plug-In . SVG Version: 6.00 Build 0)  -->
<svg version="1.1" id="Layer_1" xmlns="http://www.w3.org/2000/svg" xmlns:xlink="http://www.w3.org/1999/xlink" x="0px" y="0px"
	 viewBox="0 0 24 24" style="enable-background:new 0 0 24 24;" xml:space="preserve">
<title>glyphName</title>
<path d="M16.2,12.1l3.1,3.1c0.6,0.6,0.9,1.3,0.9,2.1c0,0.8-0.3,1.5-0.9,2.1c-0.6,0.6-1.3,0.9-2.1,0.9S15.6,20,15,19.4l-3.1-3.1
	l-3.2,3.2c-0.6,0.6-1.3,0.9-2.1,0.9c-0.8,0-1.5-0.3-2.1-0.9c-0.6-0.6-0.9-1.3-0.9-2.1c0-0.8,0.3-1.5,0.9-2.1l3.2-3.2L4.6,8.9
	C4,8.4,3.7,7.7,3.7,6.8C3.7,6,4,5.3,4.6,4.7c0.6-0.6,1.3-0.9,2.1-0.9s1.5,0.3,2.1,0.9l3.1,3.1l3.3-3.3c0.6-0.6,1.3-0.9,2.1-0.9
	s1.5,0.3,2.1,0.9c0.6,0.6,0.9,1.3,0.9,2.1s-0.3,1.5-0.9,2.1L16.2,12.1z"/>
</svg>
